HIERARCHY
ROOT SpineBase
{
  OFFSET 0.000000 0.000000 0.000000
  CHANNELS 6 Xposition Yposition Zposition Zrotation Xrotation Yrotation
  JOINT SpineMid
  {
    OFFSET -0.000000 36.904524 0.000000
    CHANNELS 3 Zrotation Xrotation Yrotation
    JOINT SpineShoulder
    {
      OFFSET -0.815087 27.092680 -0.842720
      CHANNELS 3 Zrotation Xrotation Yrotation
      JOINT Neck
      {
        OFFSET -0.305017 8.854286 -0.788092
        CHANNELS 3 Zrotation Xrotation Yrotation
        JOINT Head
        {
          OFFSET -5.631652 10.943069 4.996266
          CHANNELS 3 Zrotation Xrotation Yrotation
          End Site
          {
            OFFSET 0 0 0
          }
        }
      }
      JOINT ShoulderLeft
      {
        OFFSET -14.330498 -9.560197 -16.726517
        CHANNELS 3 Zrotation Xrotation Yrotation
        JOINT ElbowLeft
        {
          OFFSET 4.987175 -26.273521 -6.241779
          CHANNELS 3 Zrotation Xrotation Yrotation
          JOINT WristLeft
          {
            OFFSET -0.034196 -21.530957 11.682309
            CHANNELS 3 Zrotation Xrotation Yrotation
            JOINT HandLeft
            {
              OFFSET 3.440948 -5.840332 -0.147013
              CHANNELS 3 Zrotation Xrotation Yrotation
              JOINT HandTipLeft
              {
                OFFSET -0.436053 -8.386321 0.746781
                CHANNELS 3 Zrotation Xrotation Yrotation
                End Site
                {
                  OFFSET 0 0 0
                }
              }
              JOINT ThumbLeft
              {
                OFFSET 3.684734 -0.532976 -3.965784
                CHANNELS 3 Zrotation Xrotation Yrotation
                End Site
                {
                  OFFSET 0 0 0
                }
              }
            }
          }
        }
      }
      JOINT ShoulderRight
      {
        OFFSET 3.662205 -5.341153 -14.054779
        CHANNELS 3 Zrotation Xrotation Yrotation
        JOINT ElbowRight
        {
          OFFSET 2.224484 -27.757872 -5.678825
          CHANNELS 3 Zrotation Xrotation Yrotation
          JOINT WristRight
          {
            OFFSET -9.224091 -18.650184 4.065302
            CHANNELS 3 Zrotation Xrotation Yrotation
            JOINT HandRight
            {
              OFFSET -2.081348 -5.003216 2.467917
              CHANNELS 3 Zrotation Xrotation Yrotation
              JOINT HandTipRight
              {
                OFFSET -4.645944 -5.474070 1.131574
                CHANNELS 3 Zrotation Xrotation Yrotation
                End Site
                {
                  OFFSET 0 0 0
                }
              }
              JOINT ThumbRight
              {
                OFFSET -2.650631 3.685597 -1.192089
                CHANNELS 3 Zrotation Xrotation Yrotation
                End Site
                {
                  OFFSET 0 0 0
                }
              }
            }
          }
        }
      }
    }
  }
  JOINT HipLeft
  {
    OFFSET -7.671141 0.410981 -1.953952
    CHANNELS 3 Zrotation Xrotation Yrotation
    JOINT KneeLeft
    {
      OFFSET 20.301856 -30.455325 7.864069
      CHANNELS 3 Zrotation Xrotation Yrotation
      JOINT AnkleLeft
      {
        OFFSET 6.241957 -33.362667 6.095691
        CHANNELS 3 Zrotation Xrotation Yrotation
        JOINT FootLeft
        {
          OFFSET -8.692482 -3.827725 0.453796
          CHANNELS 3 Zrotation Xrotation Yrotation
          End Site
          {
            OFFSET 0 0 0
          }
        }
      }
    }
  }
  JOINT HipRight
  {
    OFFSET 7.580499 0.798092 -5.523506
    CHANNELS 3 Zrotation Xrotation Yrotation
    JOINT KneeRight
    {
      OFFSET -3.287378 -30.780951 2.100238
      CHANNELS 3 Zrotation Xrotation Yrotation
      JOINT AnkleRight
      {
        OFFSET 6.157786 -34.415727 4.808762
        CHANNELS 3 Zrotation Xrotation Yrotation
        JOINT FootRight
        {
          OFFSET -4.025570 -7.066090 -2.387562
          CHANNELS 3 Zrotation Xrotation Yrotation
          End Site
          {
            OFFSET 0 0 0
          }
        }
      }
    }
  }
}
MOTION
Frames: 10
Frame Time: 0.033333
-8.933632 72.540247 356.742067 0.541655 -8.331230 25.187663 -1.195320 1.028517 -25.297331 -0.381755 1.580246 -0.024663 1.572840 3.842611 -1.156969 0.000000 0.000000 0.000000 5.408720 7.263009 -0.998289 -48.831514 -40.384695 -34.508607 -31.864390 12.022926 30.445480 41.328868 -23.596248 -2.106144 0.000000 0.000000 0.000000 0.000000 0.000000 0.000000 -8.279995 1.402132 2.530034 -18.726750 -20.198850 0.224957 -11.607068 -18.357430 -9.178263 24.837763 12.094925 12.877058 0.000000 0.000000 0.000000 0.000000 0.000000 0.000000 9.927263 3.909234 -24.451237 -46.638836 -15.660787 -17.961532 75.622115 33.864763 -96.187780 0.000000 0.000000 0.000000 7.271767 10.754631 -26.347765 3.420427 2.284579 2.363693 -2.116729 2.050274 -8.399183 0.000000 0.000000 0.000000
-10.678941 72.545064 358.522623 0.119127 -7.968954 25.710786 -1.224489 0.887551 -25.863942 -0.420896 1.448374 -0.048414 -0.366706 3.429017 -0.028492 0.000000 0.000000 0.000000 10.064370 8.269695 -2.318421 -57.316498 -42.875626 -38.648350 -39.897091 13.753503 47.897423 46.792304 -28.425173 -6.655060 0.000000 0.000000 0.000000 0.000000 0.000000 0.000000 -7.895018 1.833042 2.623095 -21.778114 -21.689961 -0.812846 -9.892578 -17.883656 -9.584331 24.645395 12.313205 13.143478 0.000000 0.000000 0.000000 0.000000 0.000000 0.000000 9.334297 3.542668 -25.186105 -44.827139 -17.345832 -18.115274 74.345465 34.988549 -94.418884 0.000000 0.000000 0.000000 9.872704 10.705880 -27.284337 2.502418 2.040796 2.740510 -1.710759 1.836459 -9.783842 0.000000 0.000000 0.000000
-12.041772 72.528448 359.803490 0.163009 -7.065180 25.851253 -1.313627 0.856654 -25.985553 -0.463522 1.181670 -0.063248 0.061595 3.760381 0.231904 0.000000 0.000000 0.000000 16.180392 10.277815 -4.133079 -66.105135 -45.442642 -42.447314 -44.210798 19.703006 63.734574 45.075628 -26.004785 -8.799360 0.000000 0.000000 0.000000 0.000000 0.000000 0.000000 -7.290986 2.129221 2.507697 -25.426065 -22.731794 -2.119677 -2.298875 -18.294500 -8.054543 16.434914 14.021133 12.916138 0.000000 0.000000 0.000000 0.000000 0.000000 0.000000 10.639412 8.331351 -22.156097 -48.021601 -23.709397 -28.066647 77.391357 38.610823 -102.214475 0.000000 0.000000 0.000000 10.779079 10.346475 -27.546500 2.500515 2.173935 3.117853 -1.454030 1.484799 -11.014139 0.000000 0.000000 0.000000
-13.776530 72.753260 361.733651 0.069594 -6.099104 23.385305 -1.264433 0.806761 -23.514143 -0.271501 1.150026 -0.060279 0.258421 4.009342 0.631578 0.000000 0.000000 0.000000 20.065404 9.926581 -5.302028 -68.821481 -44.497465 -41.252276 -43.779941 18.560950 62.763125 48.003048 -16.507993 -6.923309 0.000000 0.000000 0.000000 0.000000 0.000000 0.000000 -6.160382 2.309978 2.152700 -29.308395 -23.341166 -3.427369 -0.285921 -19.094663 -8.114264 19.820434 20.721589 7.791872 0.000000 0.000000 0.000000 0.000000 0.000000 0.000000 8.084727 11.418949 -18.551154 -43.468370 -28.265987 -30.715260 73.441022 41.299198 -102.360136 0.000000 0.000000 0.000000 12.944181 11.629033 -25.660381 1.580159 0.553272 3.727044 -1.429278 1.092739 -12.171605 0.000000 0.000000 0.000000
-15.750137 72.324697 363.289969 -0.074291 -4.249243 22.906929 -1.194872 0.827542 -23.013512 -0.225097 1.062127 -0.063173 0.925389 4.337606 1.354303 0.000000 0.000000 0.000000 21.900630 7.223987 -5.376896 -66.425610 -43.717060 -36.825492 -41.825133 20.263198 58.806788 45.088155 -7.471227 -5.931064 0.000000 0.000000 0.000000 0.000000 0.000000 0.000000 -5.106382 1.849589 1.815785 -31.378927 -24.279107 -4.414894 0.921774 -20.279240 -7.839712 15.724162 24.459175 7.050528 0.000000 0.000000 0.000000 0.000000 0.000000 0.000000 2.832547 12.456498 -18.015665 -33.093904 -33.270416 -28.963371 65.028194 44.776202 -97.296583 0.000000 0.000000 0.000000 14.390716 10.151481 -25.072116 1.122284 1.288572 4.131799 -2.217917 0.192142 -13.457273 0.000000 0.000000 0.000000
-17.164572 71.813048 365.514521 0.473682 -3.103980 21.966595 -1.384272 1.209607 -22.009065 -0.251527 1.135527 -0.046566 -0.043265 3.917924 2.247855 0.000000 0.000000 0.000000 21.233111 3.588880 -4.827465 -58.846627 -40.732326 -29.070332 -37.886746 17.683917 46.052702 42.863311 4.892281 -3.056027 0.000000 0.000000 0.000000 0.000000 0.000000 0.000000 -4.337516 1.432387 1.514865 -34.359084 -24.874027 -5.690573 4.249683 -19.641175 -7.356037 8.930078 18.450524 12.110551 0.000000 0.000000 0.000000 0.000000 0.000000 0.000000 -4.932007 11.730281 -19.293622 -18.289429 -33.853864 -20.791640 54.319730 45.568897 -84.289448 0.000000 0.000000 0.000000 14.620877 11.031745 -24.401438 1.736454 1.226882 4.889111 -2.348571 -0.191103 -15.213502 0.000000 0.000000 0.000000
-18.526764 71.481485 367.916810 1.100208 -1.196353 18.209559 -1.588354 0.919289 -18.216480 -0.339710 1.343097 -0.013207 1.116436 3.936511 2.292144 0.000000 0.000000 0.000000 17.995059 -1.354451 -3.758387 -48.563367 -35.434031 -20.767416 -33.784869 14.215920 32.896235 41.277399 -2.266744 -1.577090 0.000000 0.000000 0.000000 0.000000 0.000000 0.000000 -4.243760 0.907943 1.293515 -36.640272 -25.235308 -7.175364 5.762490 -17.613226 -7.500025 11.875664 10.874963 14.886606 0.000000 0.000000 0.000000 0.000000 0.000000 0.000000 -14.449898 8.884904 -19.199640 -0.722971 -31.066672 -10.502112 40.097976 44.722772 -66.589925 0.000000 0.000000 0.000000 13.889781 12.761967 -20.995033 2.440979 0.388524 5.862286 -0.866993 -0.763390 -17.251294 0.000000 0.000000 0.000000
-20.263865 71.292707 370.482737 1.542677 0.834422 16.447183 -1.554121 0.943501 -16.432277 -0.410972 1.194678 -0.000372 0.914332 2.628399 2.436186 0.000000 0.000000 0.000000 12.489244 -7.078047 -2.685948 -37.425211 -28.131110 -14.113508 -29.176176 11.863008 22.822093 7.348966 -3.954842 -0.974151 0.000000 0.000000 0.000000 0.000000 0.000000 0.000000 -3.747212 0.647257 1.057378 -38.551771 -25.410251 -8.647055 4.347030 -15.732362 -8.296189 10.070885 5.766478 17.965469 0.000000 0.000000 0.000000 0.000000 0.000000 0.000000 -24.388796 5.149096 -23.329224 17.112449 -22.640836 -0.362350 26.463959 39.768337 -47.820304 0.000000 0.000000 0.000000 14.299971 13.112442 -19.409325 2.005879 0.038248 6.502435 -0.228125 -1.225160 -18.966593 0.000000 0.000000 0.000000
-21.915214 71.327402 373.576069 2.283016 3.119191 16.785861 -1.518693 1.024398 -16.766159 -0.376260 1.295635 0.044230 0.562812 0.436160 2.229523 0.000000 0.000000 0.000000 8.498686 -12.990435 -2.410626 -29.937356 -21.267101 -9.418008 -26.382675 8.751348 15.418392 -2.223761 -10.648938 -1.156731 0.000000 0.000000 0.000000 0.000000 0.000000 0.000000 -4.022200 0.088280 0.833749 -41.110085 -26.498614 -10.682586 8.686913 -9.525182 -8.107019 4.057757 -3.555866 20.900263 0.000000 0.000000 0.000000 0.000000 0.000000 0.000000 -31.743616 1.919248 -29.515559 28.096954 -11.451540 5.599113 15.844188 31.865629 -31.254219 0.000000 0.000000 0.000000 14.944541 13.166288 -19.994827 1.156728 -0.963895 7.076478 0.454739 -1.956342 -20.086580 0.000000 0.000000 0.000000
-23.246940 71.440567 376.544336 3.252619 5.447762 19.973137 -1.262263 1.214543 -19.974219 -0.373990 1.317370 0.100069 -1.412351 -2.597523 2.055878 0.000000 0.000000 0.000000 4.881663 -18.050566 -2.575546 -24.778065 -15.818985 -6.609732 -25.683510 4.825897 9.502370 -35.016709 -29.847220 -14.682086 0.000000 0.000000 0.000000 0.000000 0.000000 0.000000 -4.791535 -0.179752 0.605520 -41.997645 -27.274971 -12.434289 10.898529 -3.501913 -8.244997 -8.799172 -14.428916 21.702045 0.000000 0.000000 0.000000 0.000000 0.000000 0.000000 -36.068203 0.101554 -36.980912 32.022469 -1.307937 8.540255 10.691827 23.744010 -20.402660 0.000000 0.000000 0.000000 15.801652 11.985757 -23.276210 -0.265395 -2.046668 7.256425 -0.984943 0.099938 -21.579415 0.000000 0.000000 0.000000
